<svg id="Layer_1" data-name="Layer 1" xmlns="http://www.w3.org/2000/svg" viewBox="0 0 121.18 31.1"><defs><style>.cls-1{fill:#142649;}.cls-2{fill:#fff;}</style></defs><title>logo</title><rect class="cls-1" x="2.87" y="17.71" width="115.13" height="5.68"/><path class="cls-2" d="M78.85,19.1h.68l1.19,1.84h0V19.1h.69v3h-.7l-1.17-1.79h0v1.79h-.69Z"/><path class="cls-2" d="M81.81,21.05a1.11,1.11,0,1,1,1.11,1.06A1,1,0,0,1,81.81,21.05Zm1.56,0a.45.45,0,1,0-.89,0,.45.45,0,1,0,.89,0Z"/><path class="cls-2" d="M85.23,21.71l.41-.48a.51.51,0,0,0,.39.23c.16,0,.29-.1.29-.43V19.1H87V21c0,.67-.27,1.1-.95,1.1A1.05,1.05,0,0,1,85.23,21.71Z"/><path class="cls-2" d="M87.41,21.05a1.11,1.11,0,1,1,1.11,1.06A1,1,0,0,1,87.41,21.05Zm1.56,0a.45.45,0,1,0-.89,0,.45.45,0,1,0,.89,0Z"/><path class="cls-2" d="M90.61,21.86h0v.22H90V19h.65v1.25h0a.74.74,0,0,1,.58-.26,1.07,1.07,0,0,1,0,2.13A.7.7,0,0,1,90.61,21.86Zm.89-.81a.45.45,0,0,0-.44-.49.46.46,0,0,0-.45.49.45.45,0,0,0,.46.48A.44.44,0,0,0,91.5,21.05Z"/><path class="cls-2" d="M93.59,19.1h.72v3h-.72Z"/><path class="cls-2" d="M94.67,21.81l.31-.42a.79.79,0,0,0,.54.23c.13,0,.2,0,.2-.12s-.06-.11-.32-.19-.65-.27-.65-.67a.68.68,0,0,1,.77-.65,1.21,1.21,0,0,1,.78.26L96,20.7a.69.69,0,0,0-.46-.21c-.08,0-.16,0-.16.11s.08.11.28.18c.45.16.7.27.7.68s-.27.66-.83.66A1.22,1.22,0,0,1,94.67,21.81Z"/><path class="cls-2" d="M98.33,19.72h-.78V19.1h2.27v.63H99v2.35h-.71Z"/><path class="cls-2" d="M99.7,21.05a1.11,1.11,0,1,1,1.11,1.06A1,1,0,0,1,99.7,21.05Zm1.56,0a.45.45,0,1,0-.89,0,.45.45,0,1,0,.89,0Z"/><path class="cls-2" d="M102.17,21.05a1.11,1.11,0,1,1,1.11,1.06A1,1,0,0,1,102.17,21.05Zm1.56,0a.45.45,0,1,0-.89,0,.45.45,0,1,0,.89,0Z"/><path class="cls-2" d="M105.61,21.64l.41-.5a1,1,0,0,0,.71.35c.23,0,.33-.12.33-.25s-.1-.24-.44-.35-.91-.37-.91-1a.92.92,0,0,1,1-.88,1.53,1.53,0,0,1,1,.39l-.39.51a1,1,0,0,0-.61-.28c-.17,0-.28.09-.28.23s.1.22.43.34c.52.2.93.34.93.91a1,1,0,0,1-1.1,1A1.52,1.52,0,0,1,105.61,21.64Z"/><path class="cls-2" d="M108.15,20h.65v.24h0a.76.76,0,0,1,.58-.28.64.64,0,0,1,.6.31h0a.85.85,0,0,1,.69-.31c.43,0,.73.25.73.89v1.2h-.66V21c0-.27-.07-.46-.3-.46s-.34.16-.34.48v1h-.65V21c0-.27-.08-.46-.3-.46s-.36.16-.36.48v1h-.65Z"/><path class="cls-2" d="M111.74,21.05a1,1,0,0,1,.94-1.07.74.74,0,0,1,.57.26h0V20h.66v2.05h-.62v-.21h0a.67.67,0,0,1-.57.26A1,1,0,0,1,111.74,21.05Zm1.54,0a.45.45,0,0,0-.43-.49.45.45,0,0,0-.44.49.44.44,0,0,0,.44.48A.45.45,0,0,0,113.28,21.05Z"/><path class="cls-2" d="M114.37,19H115v3.09h-.65Z"/><path class="cls-2" d="M115.52,19h.65v3.09h-.65Z"/><path class="cls-2" d="M11.32,9.51l0-.26a1.57,1.57,0,0,0-1.25-.65c-1,0-1.63,1.65-1.63,3,0,.87.34,1.44.86,1.44C10.14,13,11.06,11.78,11.32,9.51Z"/><path class="cls-2" d="M28.32,9.51l0-.26a1.54,1.54,0,0,0-1.28-.65c-1,0-1.63,1.65-1.63,3,0,.87.34,1.44.86,1.44C27.12,13,28,11.78,28.32,9.51Z"/><path class="cls-2" d="M39,6.29l-.8,7.82c-.4,4.08-2.34,5-4.26,5a4.51,4.51,0,0,1-2.73-.89L32,16.18a3,3,0,0,0,1.88.7c1,0,1.8-.42,2.08-2.83v0l0,0a2.65,2.65,0,0,1-2.24,1.48c-1.42,0-2.25-.91-1.93-3.59l.65-5.62h2.3l-.55,4.79c-.17,1.46-.06,1.94.49,1.94s1.57-1.31,1.7-2.61l.43-4.12Z"/><path class="cls-2" d="M57.51,9.51l0-.26a1.58,1.58,0,0,0-1.25-.65c-1,0-1.63,1.65-1.63,3,0,.87.34,1.44.86,1.44C56.32,13,57.25,11.78,57.51,9.51Z"/><path class="cls-2" d="M97.32,8.43c-.66,0-1.34.7-1.6,2,1.13-.15,2.14-.5,2.16-1.39A.5.5,0,0,0,97.32,8.43Z"/><path class="cls-1" d="M3.84,7.18h2l-.46,3.77H8.1l.46-3.77h2.06l-1.12,9h-2l.42-3.43H5.19l-.42,3.43h-2Z"/><path class="cls-1" d="M11.09,13.77c0-2.21,1.31-3.9,2.93-3.9a1.94,1.94,0,0,1,1.46.55h0l.05-.43h1.92l-.76,6.21H14.81l.11-.91h0a2.17,2.17,0,0,1-1.78,1C11.78,16.3,11.09,15.2,11.09,13.77Zm4.27-1.57,0-.18a1.39,1.39,0,0,0-1-.44c-.84,0-1.35,1.13-1.35,2.06,0,.6.28,1,.71,1C14.38,14.62,15.14,13.75,15.36,12.19Z"/><path class="cls-1" d="M18.86,10h1.89l-.1.86h0a2.63,2.63,0,0,1,2.06-1c1.18,0,1.66.79,1.43,2.53l-.5,3.8H21.77l.44-3.36c.11-.86,0-1.26-.37-1.26-.57,0-1.38.77-1.59,2.32L20,16.19h-1.9Z"/><path class="cls-1" d="M25,13.77c0-2.21,1.31-3.9,2.93-3.9a2.08,2.08,0,0,1,1.49.55h0l.43-3.57h1.92l-1.16,9.34h-1.9l.11-.91h0a2.19,2.19,0,0,1-1.79,1C25.73,16.3,25,15.2,25,13.77Zm4.29-1.57,0-.18a1.36,1.36,0,0,0-1.05-.44c-.84,0-1.35,1.13-1.35,2.06,0,.6.28,1,.71,1C28.35,14.62,29.11,13.75,29.34,12.19Z"/><path class="cls-1" d="M38.15,10l-.66,5.37c-.33,2.81-1.93,3.47-3.5,3.47a4.22,4.22,0,0,1-2.25-.61l.6-1.43a2.77,2.77,0,0,0,1.55.48c.85,0,1.49-.29,1.71-1.94h0a2.24,2.24,0,0,1-1.84,1c-1.17,0-1.85-.62-1.59-2.46L32.67,10h1.89l-.46,3.29c-.14,1-.05,1.33.41,1.33s1.29-.9,1.4-1.79L36.26,10Z"/><path class="cls-1" d="M39.52,10h1.9l-.1.77h.05a2.5,2.5,0,0,1,1.89-.9,1.23,1.23,0,0,1,1.35.94h.06a2.6,2.6,0,0,1,2.08-.94c1.23,0,1.68.81,1.45,2.6l-.5,3.72H45.82l.44-3.36c.11-.86.05-1.26-.34-1.26s-1.24.76-1.45,2.33l-.3,2.29H42.28l.44-3.36c.11-.86.09-1.26-.34-1.26s-1.24.75-1.42,2.2l-.29,2.42h-1.9Z"/><path class="cls-1" d="M49.09,13.77c0-2.21,1.31-3.9,2.93-3.9a1.94,1.94,0,0,1,1.46.55h0l.05-.43h1.92l-.76,6.21H52.8l.11-.91h0a2.17,2.17,0,0,1-1.78,1C49.77,16.3,49.09,15.2,49.09,13.77Zm4.27-1.57,0-.18a1.39,1.39,0,0,0-1-.44c-.84,0-1.35,1.13-1.35,2.06,0,.6.28,1,.71,1C52.37,14.62,53.13,13.75,53.35,12.19Z"/><path class="cls-1" d="M56.85,10h1.89l-.1.86h0a2.63,2.63,0,0,1,2.06-1c1.18,0,1.66.79,1.44,2.53l-.5,3.8H59.77l.44-3.36c.11-.86,0-1.26-.37-1.26-.57,0-1.38.77-1.59,2.32L58,16.19h-1.9Z"/><path class="cls-1" d="M66.53,7.18h5.36L71.66,9H68.29l-.23,1.84h2.65l-.2,1.75H67.86l-.23,1.79h3.61L71,16.19H65.42Z"/><path class="cls-1" d="M71.86,15.24l1.07-1.1a2,2,0,0,0,1.41.74c.33,0,.57-.13.57-.34s-.25-.33-1-.7c-.94-.47-1.51-1-1.51-1.89a2.12,2.12,0,0,1,2.3-2.07,2.87,2.87,0,0,1,2.23,1L75.81,12a1.43,1.43,0,0,0-1.07-.63c-.25,0-.49.14-.49.38s.3.41.87.69c1,.48,1.62.93,1.62,1.9,0,1.22-1,2-2.46,2A3.19,3.19,0,0,1,71.86,15.24Z"/><path class="cls-1" d="M77.19,15.24l1.07-1.1a2,2,0,0,0,1.41.74c.33,0,.57-.13.57-.34s-.25-.33-1-.7c-.94-.47-1.51-1-1.51-1.89a2.12,2.12,0,0,1,2.3-2.07,2.87,2.87,0,0,1,2.23,1L81.13,12a1.43,1.43,0,0,0-1.07-.63c-.25,0-.49.14-.49.38s.3.41.87.69c1,.48,1.62.93,1.62,1.9,0,1.22-1,2-2.46,2A3.19,3.19,0,0,1,77.19,15.24Z"/><path class="cls-1" d="M84.71,13.94a.9.9,0,0,0,.89.79,1.34,1.34,0,0,0,1.13-.62l1.42.84a3.09,3.09,0,0,1-2.7,1.36,2.42,2.42,0,0,1-2.59-2.6c0-2.11,1.31-3.83,3.4-3.83,1,0,2.13.55,2.12,1.71C88.35,13.16,86.54,13.75,84.71,13.94Zm1.38-2.49c-.55,0-1.1.48-1.32,1.34.93-.1,1.76-.34,1.78-1C86.56,11.6,86.38,11.46,86.09,11.46Z"/><path class="cls-1" d="M89.63,10h1.89l-.1.86h0a2.63,2.63,0,0,1,2.06-1c1.18,0,1.66.79,1.44,2.53l-.5,3.8H92.55L93,12.83c.11-.86,0-1.26-.37-1.26-.57,0-1.38.77-1.59,2.32l-.28,2.3h-1.9Z"/><path class="cls-1" d="M96.15,14.32l.33-2.8h-.61L96.06,10h.61l.24-1.82,1.94-.38L98.59,10h1.28l-.19,1.54H98.4l-.3,2.55c-.05.35.08.52.28.52a1.46,1.46,0,0,0,.62-.2l.3,1.48a3.42,3.42,0,0,1-1.66.43C96.67,16.3,96,15.76,96.15,14.32Z"/><path class="cls-1" d="M100.85,10h1.9L102,16.19h-1.9Zm0-1.89A1.1,1.1,0,0,1,102.06,7a1.06,1.06,0,0,1,1.14,1.08A1.11,1.11,0,0,1,102,9.18,1.08,1.08,0,0,1,100.88,8.09Z"/><path class="cls-1" d="M103.46,13.77c0-2.21,1.31-3.9,2.93-3.9a1.94,1.94,0,0,1,1.46.55h0l.05-.43h1.92l-.76,6.21h-1.92l.11-.91h0a2.17,2.17,0,0,1-1.78,1C104.14,16.3,103.46,15.2,103.46,13.77Zm4.27-1.57,0-.18a1.39,1.39,0,0,0-1-.44c-.84,0-1.35,1.13-1.35,2.06,0,.6.28,1,.71,1C106.75,14.62,107.51,13.75,107.72,12.19Z"/><path class="cls-1" d="M111.65,6.85h1.92l-1.16,9.34h-1.9Z"/><path class="cls-1" d="M113.49,15.24l1.07-1.1a2,2,0,0,0,1.41.74c.33,0,.57-.13.57-.34s-.25-.33-1-.7c-.94-.47-1.51-1-1.51-1.89a2.12,2.12,0,0,1,2.3-2.07,2.87,2.87,0,0,1,2.23,1L117.44,12a1.43,1.43,0,0,0-1.07-.63c-.25,0-.49.14-.49.38s.3.41.87.69c1,.48,1.62.93,1.62,1.9,0,1.22-1,2-2.46,2A3.19,3.19,0,0,1,113.49,15.24Z"/></svg>